<svg width="36" height="51" viewBox="0 0 36 51" fill="none" xmlns="http://www.w3.org/2000/svg">
  <defs>
    <style>
      .logo-question {
        fill: #FFD951;
      }
      .logo-three {
        fill: #394262;
      }
    </style>
  </defs>

  <g transform="translate(0,24)">
    <path class="logo-three"
          d="M23.2105 5.51618C25.0742 6.66465 26.676 8.9009 26.676 11.4721C26.676 15.3362 23.6463 18.4847 18.5476 18.4847C14.8111 18.4847 11.9326 16.5854 10.6111 13.6696C9.85827 12.0087 8.22696 10.6303 6.4352 10.9694L2.63618 11.6886C1.13509 11.9728 0.0552882 13.3528 0.445303 14.8299C2.20729 21.5032 8.66873 27 18.5476 27C30.1491 27 36 20.2021 36 12.1877C35.5697 6.51686 33.706 2.77683 31.1068 0.392074C28.8947 -1.00518 22.7368 1.47901 23.2105 5.51618Z"/>
  </g>

  <g>
    <path class="logo-question"
          d="M14.4834 25.9961C14.4834 23.9325 16.5553 22.4689 18.6187 22.4954C18.6925 22.4964 18.7673 22.4969 18.8432 22.4969C23.4246 22.4969 26.676 19.9812 26.676 15.5969C26.676 11.7156 23.6463 8.55312 18.5476 8.55312C14.8069 8.55312 11.9261 10.4651 10.6066 13.3995C9.85822 15.0637 8.22492 16.442 6.43223 16.1012L2.63275 15.3787C1.13318 15.0936 0.0549754 13.715 0.44159 12.2383C2.19819 5.529 8.66177 0 18.5476 0C30.1491 0 36 4.77292 36 16.376C36 26.9952 24.3021 30.9953 16.5302 29.5501C15.2804 29.3177 14.4834 28.1593 14.4834 26.8881V25.9961Z"/>
    <path class="logo-question"
          d="M18.9474 42.5779C20.6736 42.5779 23.6842 44.7249 23.6842 46.4512V49.3531C23.6842 49.8206 23.5275 50.2701 23.0941 50.4452C22.4526 50.7042 21.137 51 18.4737 51C15.4956 51 14.2768 50.6301 13.7823 50.3554C13.5224 50.2111 13.4507 49.9131 13.4507 49.6159V46.9235C13.4507 44.5673 16.3515 42.5481 18.7076 42.5765C18.7866 42.5775 18.8665 42.5779 18.9474 42.5779Z"/>
  </g>
</svg>
