<svg xmlns="http://www.w3.org/2000/svg" viewBox="0 0 25 25">
    <defs>
        <style>.cls-1{fill:#b4c4d9;fill-rule:evenodd;}</style>
    </defs>
    <title>Asset 1</title>
    <g id="Layer_2" data-name="Layer 2">
        <g id="Layer_1-2" data-name="Layer 1">
            <path class="cls-1"
                  d="M12.5,0A12.5,12.5,0,1,0,25,12.5,12.5,12.5,0,0,0,12.5,0Zm-2,16.67h-2V10.09h2Zm-1-7.48A1.19,1.19,0,1,1,10.7,8,1.19,1.19,0,0,1,9.52,9.19Zm8.66,7.48h-2v-3.2c0-.77,0-1.75-1.06-1.75s-1.22.83-1.22,1.69v3.26h-2V10.09h2V11h0a2.15,2.15,0,0,1,1.94-1.06c2.06,0,2.44,1.36,2.44,3.12Z"/>
        </g>
    </g>
</svg>
