<svg width="25" height="25" viewBox="0 0 25 25" fill="none" xmlns="http://www.w3.org/2000/svg">
  <path fill-rule="evenodd" clip-rule="evenodd"
        d="M12.5 25C19.4036 25 25 19.4035 25 12.5C25 5.59646 19.4036 0 12.5 0C5.59644 0 0 5.59646 0 12.5C0 19.4035 5.59644 25 12.5 25ZM8.33333 8.00083C8.33333 7.34794 8.86309 6.81818 9.51598 6.81818C10.1684 6.81818 10.6982 7.34794 10.6986 8.00083C10.6986 8.65368 10.1688 9.19453 9.51598 9.19453C8.86309 9.19453 8.33333 8.65368 8.33333 8.00083ZM18.1818 16.6663V13.0543C18.1818 11.2873 17.8014 9.92621 15.7357 9.92621C14.7426 9.92621 14.0762 10.4711 13.8042 10.9878H13.7754V10.0911H11.8168V16.6663H13.8563V13.4105C13.8563 12.5533 14.0188 11.7243 15.0804 11.7243C16.1264 11.7243 16.1419 12.7026 16.1419 13.4655V16.6666L18.1818 16.6663ZM8.49584 10.0916H10.5377V16.6667H8.49584V10.0916Z"/>
</svg>
