<svg width="12" height="12" viewBox="0 0 12 12" fill="none" xmlns="http://www.w3.org/2000/svg">
  <path d="M0.292892 9.20676C0.105356 9.3943 0 9.64865 0 9.91387V11C0 11.5523 0.447715 12 1 12H2.08613C2.35135 12 2.6057 11.8946 2.79324 11.7071L9.17092 5.3294C9.56144 4.93888 9.56144 4.30571 9.17092 3.91519L8.08478 2.82905C7.69426 2.43853 7.06109 2.43853 6.67057 2.82906L0.292892 9.20676Z" fill="#435271"/>
  <path d="M11.805 1.7519L10.2481 0.195027C9.98804 -0.065009 9.56464 -0.065009 9.3046 0.195027L8.79154 0.708088C8.40101 1.09861 8.40101 1.73178 8.79154 2.1223L9.87767 3.20843C10.2682 3.59896 10.9014 3.59896 11.2919 3.20843L11.8049 2.69537C12.065 2.43534 12.065 2.01193 11.805 1.7519Z" fill="#435271"/>
</svg>
