<svg width="20" height="18" viewBox="0 0 20 18" fill="none" xmlns="http://www.w3.org/2000/svg">
  <path d="M0 6.42869V16.7143C0 17.4243 0.559617 18 1.25 18H5V5.14299H1.25C0.559617 5.14299 0 5.71859 0 6.42869Z" fill="#D0DEF0"/>
  <path d="M17.6917 6.42842H13.999C13.6762 6.42842 13.5144 6.20681 13.4601 6.11139C13.4058 6.01659 13.2959 5.76359 13.4522 5.47356L14.754 3.06224C15.0397 2.53427 15.069 1.91339 14.8352 1.35906C14.6014 0.804096 14.14 0.401686 13.5693 0.255413L12.6514 0.0193659C12.428 -0.0383903 12.1912 0.0350605 12.0355 0.212724L7.05139 5.90798C6.53442 6.49998 6.25 7.26337 6.25 8.05814V14.7855C6.25 16.5577 7.65198 17.9997 9.375 17.9997L15.5927 17.9991C16.9965 17.9991 18.2361 17.0267 18.6066 15.6349L19.9408 9.33692C19.9799 9.16177 20 8.98223 20 8.80268C20 7.49375 18.9642 6.42842 17.6917 6.42842Z" fill="#D0DEF0"/>
</svg>
