<svg width="18" height="18" viewBox="0 0 18 18" fill="none" xmlns="http://www.w3.org/2000/svg">
  <path d="M17.3333 2C17.7015 1.63181 17.7015 1.03486 17.3333 0.666667C16.9651 0.298477 16.3682 0.298476 16 0.666666L9 7.66667L2 0.666667C1.63181 0.298477 1.03486 0.298477 0.666667 0.666667C0.298477 1.03486 0.298476 1.63181 0.666666 2L7.66667 9L0.666667 16C0.298477 16.3682 0.298477 16.9651 0.666667 17.3333C1.03486 17.7015 1.63181 17.7015 2 17.3333L9 10.3333L16 17.3333C16.3682 17.7015 16.9651 17.7015 17.3333 17.3333C17.7015 16.9651 17.7015 16.3682 17.3333 16L10.3333 9L17.3333 2Z" fill="#C1D0E7"/>
</svg>
