<svg xmlns="http://www.w3.org/2000/svg" viewBox="0 0 25 25"><defs><style>.cls-1{fill:#b4c4d9;fill-rule:evenodd;}</style></defs><title>Asset 2</title><g id="Layer_2" data-name="Layer 2"><g id="Layer_1-2" data-name="Layer 1"><path class="cls-1" d="M12.5,0A12.5,12.5,0,1,0,25,12.5,12.5,12.5,0,0,0,12.5,0Zm5.27,10.49c0,.11,0,.22,0,.33a7.06,7.06,0,0,1-7,7.18A6.88,6.88,0,0,1,7,16.87a5.68,5.68,0,0,0,.59,0,4.87,4.87,0,0,0,3.06-1.08,2.47,2.47,0,0,1-2.3-1.75,2.32,2.32,0,0,0,.46,0A2.37,2.37,0,0,0,9.46,14a2.51,2.51,0,0,1-2-2.47v0h0a2.35,2.35,0,0,0,1.12.31,2.55,2.55,0,0,1-.76-3.37,6.92,6.92,0,0,0,5.07,2.64,2.78,2.78,0,0,1-.06-.58A2.49,2.49,0,0,1,15.31,8a2.44,2.44,0,0,1,1.8.8,5,5,0,0,0,1.56-.62,2.58,2.58,0,0,1-1.08,1.4A4.85,4.85,0,0,0,19,9.18,5.12,5.12,0,0,1,17.77,10.49Z"/></g></g></svg>