<?xml version="1.0" standalone="no"?>
<!DOCTYPE svg PUBLIC "-//W3C//DTD SVG 20010904//EN"
 "http://www.w3.org/TR/2001/REC-SVG-20010904/DTD/svg10.dtd">
<svg version="1.0" xmlns="http://www.w3.org/2000/svg"
 width="625.000000pt" height="625.000000pt" viewBox="0 0 625.000000 625.000000"
 preserveAspectRatio="xMidYMid meet">
<metadata>
Created by potrace 1.11, written by Peter Selinger 2001-2013
</metadata>
<g transform="translate(0.000000,625.000000) scale(0.100000,-0.100000)"
fill="#000000" stroke="none">
<path d="M4085 6236 c-100 -32 -349 -180 -630 -374 -71 -50 -135 -94 -140 -99
-8 -7 -70 -53 -274 -208 -30 -22 -324 -266 -331 -274 -3 -3 -48 -44 -100 -91
-215 -192 -614 -603 -767 -789 -15 -19 -57 -68 -91 -110 -193 -231 -483 -642
-649 -921 -204 -340 -403 -749 -536 -1100 -102 -270 -211 -622 -262 -849 -26
-114 -75 -345 -79 -376 -4 -22 -8 -47 -11 -55 -2 -8 -6 -35 -9 -60 -3 -25 -8
-54 -10 -66 -2 -12 -7 -45 -11 -75 -3 -30 -8 -61 -10 -69 -2 -8 -6 -46 -10
-83 -3 -37 -8 -76 -10 -85 -1 -9 -6 -57 -10 -107 -4 -49 -8 -103 -10 -120 -2
-16 -7 -95 -10 -175 l-6 -145 1537 0 1538 0 17 60 c33 110 42 265 23 405 -12
92 -48 228 -70 272 -8 16 -12 28 -9 28 9 0 -94 198 -147 284 -123 199 -338
444 -548 626 -41 36 -77 67 -80 70 -75 75 -445 343 -616 446 -11 7 -17 14 -14
17 15 15 266 23 360 12 93 -12 124 -17 221 -35 147 -27 289 -64 474 -122 153
-48 396 -134 460 -163 17 -7 66 -28 110 -45 44 -17 94 -38 110 -45 17 -8 86
-38 155 -68 69 -30 172 -76 230 -103 108 -50 738 -365 800 -401 19 -11 80 -44
135 -73 55 -29 150 -81 210 -115 61 -34 130 -73 155 -87 25 -14 117 -67 205
-118 88 -51 170 -98 182 -104 13 -6 23 -14 23 -18 0 -5 4 -8 10 -8 9 0 238
-137 450 -269 l85 -53 -46 48 c-90 97 -138 150 -199 224 -34 41 -72 86 -84
100 -88 104 -284 377 -405 565 -46 72 -91 141 -100 155 -10 14 -32 52 -51 85
-18 33 -40 68 -48 78 -8 9 -12 17 -8 17 4 0 -1 12 -12 28 -23 32 -146 262
-186 347 -16 33 -49 103 -74 155 -120 254 -240 571 -345 915 -33 107 -123 478
-141 580 -13 73 -20 112 -22 125 -8 57 -36 252 -40 285 -2 22 -7 58 -10 80
-34 271 -39 906 -8 1165 6 53 12 109 20 175 6 58 11 94 19 145 47 309 4 514
-118 565 -44 18 -127 18 -182 1z"/>
</g>
</svg>
